<?xml version="1.0" standalone="no"?>
<!DOCTYPE svg PUBLIC "-//W3C//DTD SVG 20010904//EN"
 "http://www.w3.org/TR/2001/REC-SVG-20010904/DTD/svg10.dtd">
<svg version="1.0" xmlns="http://www.w3.org/2000/svg"
 width="500.000000pt" height="500.000000pt" viewBox="0 0 500.000000 500.000000"
 preserveAspectRatio="xMidYMid meet">

<g transform="translate(0.000000,500.000000) scale(0.100000,-0.100000)"
fill="#000000" stroke="none">
<path d="M1080 3514 c-87 -13 -145 -30 -219 -66 -68 -32 -101 -57 -166 -122
-129 -130 -187 -272 -186 -460 1 -177 59 -317 185 -441 263 -261 649 -261 912
0 91 91 141 179 170 300 24 102 16 266 -18 362 -63 178 -215 331 -391 393 -89
31 -208 45 -287 34z m20 -54 c0 -5 -7 -10 -15 -10 -21 0 -19 -20 3 -21 10 0
12 -3 5 -6 -7 -2 -13 -13 -13 -24 0 -12 5 -16 15 -13 8 4 15 1 15 -5 0 -6 -13
-11 -30 -11 -29 0 -30 2 -30 43 0 24 3 47 7 50 10 11 43 8 43 -3z m86 -5 c4
-8 1 -22 -5 -29 -8 -10 -9 -16 -1 -21 15 -9 12 -25 -5 -25 -8 0 -15 6 -15 13
0 6 -5 4 -11 -6 -16 -27 -29 -10 -29 39 0 42 1 44 30 44 18 0 33 -6 36 -15z
m68 9 c24 -9 19 -23 -6 -17 l-23 6 23 -25 c29 -32 20 -58 -19 -58 -16 0 -29 5
-29 11 0 6 9 8 20 4 24 -7 26 7 5 25 -18 15 -19 32 -3 48 14 14 12 14 32 6z
m-232 -58 c-5 -57 -21 -59 -56 -6 -20 31 -23 40 -11 40 8 0 20 -9 27 -20 18
-29 28 -25 28 11 0 16 3 28 8 25 4 -2 6 -25 4 -50z m298 25 c0 -33 -21 -80
-34 -75 -10 4 -10 14 2 49 15 46 32 60 32 26z m87 -24 c4 -6 0 -8 -10 -4 -13
5 -19 -3 -28 -33 -7 -22 -15 -40 -19 -40 -16 0 -18 14 -5 51 8 22 10 39 5 39
-6 0 -10 4 -10 9 0 12 57 -7 67 -22z m-466 -18 c14 -28 17 -45 11 -51 -12 -12
-56 67 -47 82 10 16 13 12 36 -31z m-43 -24 c12 -19 22 -37 22 -41 0 -3 -18
-3 -41 1 -40 7 -40 6 -29 -15 21 -38 2 -33 -23 7 -27 42 -26 57 4 48 70 -19
66 -20 47 2 -19 21 -23 33 -10 33 4 0 17 -16 30 -35z m546 7 c0 -17 3 -19 17
-11 33 17 31 9 -7 -26 -23 -22 -41 -32 -47 -26 -5 5 -4 11 2 15 6 4 11 23 11
42 0 24 4 34 13 31 6 -2 12 -13 11 -25z m-624 -109 c0 -28 -33 -48 -57 -34
-29 15 -56 52 -46 62 5 5 21 -3 37 -20 27 -28 56 -32 56 -7 0 7 -11 23 -25 36
-13 12 -22 27 -18 33 8 14 52 -44 53 -70z m525 24 c127 -61 213 -166 250 -308
47 -176 -37 -387 -194 -488 -77 -50 -152 -71 -251 -71 -218 0 -389 134 -445
347 -52 198 49 419 233 512 86 43 122 51 234 47 87 -3 104 -6 173 -39z m125 3
c0 -5 -9 -14 -20 -20 -22 -12 -27 -1 -8 18 14 14 28 16 28 2z m130 -37 c0 -7
-7 -16 -15 -19 -8 -4 -15 -12 -15 -20 0 -20 -47 -17 -59 4 -8 13 -3 24 21 49
30 31 33 32 50 16 10 -9 18 -22 18 -30z m-926 -47 c-3 -9 7 -21 25 -32 17 -10
31 -21 31 -24 0 -17 -15 -17 -42 0 -17 10 -37 16 -44 13 -18 -7 -18 2 2 32 17
27 37 34 28 11z m1013 0 c4 -3 -3 -6 -15 -6 -16 0 -20 -4 -15 -17 5 -15 3 -16
-8 -5 -18 17 -32 15 -25 -3 4 -10 -1 -14 -17 -12 -17 1 -21 -3 -19 -18 2 -18
1 -18 -18 4 l-21 24 38 23 c35 21 84 26 100 10z m-10 -68 c-2 -13 -8 -31 -12
-41 -7 -16 -4 -17 21 -11 19 4 25 3 19 -3 -14 -14 -75 -37 -81 -30 -3 2 2 21
10 41 15 35 15 36 -5 25 -11 -5 -25 -8 -32 -6 -7 2 6 13 28 24 53 27 58 27 52
1z m-1059 -17 c-15 -25 4 -51 38 -51 17 0 24 6 24 20 0 11 5 20 10 20 17 0 11
-29 -10 -50 -23 -23 -33 -24 -61 -10 -28 16 -26 90 3 90 4 0 3 -9 -4 -19z
m1102 -85 c0 -7 -10 -16 -22 -19 -13 -3 -33 -9 -45 -12 -17 -5 -23 -3 -23 7 0
8 15 20 33 26 45 14 57 14 57 -2z m-1135 -16 c-7 -24 7 -26 25 -5 7 8 18 15
25 15 19 0 36 -25 29 -44 -9 -23 -23 -20 -17 4 6 24 -9 26 -27 5 -25 -30 -61
-7 -46 30 8 22 18 18 11 -5z m1155 -27 c0 -3 -11 -21 -25 -39 l-26 -34 33 6
c22 5 30 3 23 -3 -12 -12 -95 -26 -95 -17 0 4 12 23 26 42 l27 34 -32 -7 c-19
-4 -31 -3 -31 4 0 5 17 12 38 14 20 2 43 4 50 5 6 1 12 -1 12 -5z m-1155 -53
c7 0 16 6 18 13 3 7 6 5 6 -5 1 -10 7 -18 15 -18 8 0 17 8 19 18 3 9 5 3 6
-15 1 -31 0 -32 -36 -27 -59 9 -61 10 -55 41 4 19 7 22 10 11 2 -10 10 -18 17
-18z m81 -277 c-3 -7 -2 -13 2 -13 4 0 16 -14 26 -31 17 -29 17 -31 -1 -51
-18 -21 -18 -21 5 -9 34 18 47 3 17 -21 -21 -16 -28 -18 -40 -8 -8 7 -15 21
-15 31 0 11 -4 19 -10 19 -5 0 -10 7 -10 15 0 8 -4 15 -10 15 -5 0 -10 7 -10
15 0 8 -9 24 -19 34 -21 21 -14 35 24 43 22 5 48 -20 41 -39z m1045 20 c12
-15 12 -16 -3 -10 -14 5 -18 1 -18 -14 0 -11 -6 -22 -14 -25 -8 -3 -12 -13 -9
-25 3 -11 -1 -21 -11 -25 -9 -3 -14 -10 -11 -14 3 -5 -6 -21 -20 -36 -14 -15
-25 -31 -25 -37 0 -5 -6 -7 -14 -4 -8 3 -13 -1 -12 -11 0 -10 -6 -16 -16 -16
-9 1 -14 -4 -12 -11 3 -7 -9 -23 -26 -35 -30 -22 -32 -22 -53 -4 -12 10 -16
12 -9 4 6 -8 12 -21 12 -30 -1 -11 -6 -8 -21 9 -15 18 -23 21 -31 13 -8 -8 -8
-15 2 -27 11 -13 10 -18 -6 -30 -26 -20 -29 -19 -45 12 -12 22 -12 27 -1 31 8
2 43 24 79 48 36 24 70 41 76 37 6 -4 7 -1 2 6 -4 8 1 21 14 32 12 11 21 24
21 30 0 6 5 7 10 4 6 -3 10 0 10 9 0 24 34 76 50 77 10 0 11 2 3 5 -9 4 -9 11
-1 30 13 29 58 33 79 7z m-950 -196 c-14 -22 -14 -22 8 -3 11 11 21 15 21 10
0 -5 20 -22 45 -37 25 -16 45 -34 45 -40 0 -5 3 -7 6 -4 4 3 15 2 26 -4 14 -7
17 -16 12 -32 -6 -21 -6 -21 9 -3 10 14 19 17 33 11 10 -5 24 -9 29 -9 10 -1
11 -54 1 -63 -7 -7 -116 40 -164 71 -26 16 -42 33 -39 41 8 20 -4 27 -21 12
-13 -10 -15 -9 -9 6 4 11 3 16 -4 12 -5 -4 -22 5 -36 19 -24 24 -25 27 -6 25
4 0 11 10 15 22 8 21 10 22 26 6 14 -15 15 -20 3 -40z m590 -127 c16 0 9 -29
-10 -39 -10 -6 -33 -12 -51 -13 -17 -1 -33 -5 -36 -9 -2 -4 -26 -7 -54 -7 -40
-1 -50 3 -55 18 -8 24 1 40 22 40 13 0 13 -3 3 -15 -9 -11 -10 -19 -3 -26 7
-7 12 -1 16 18 5 24 11 28 39 30 37 2 51 5 88 20 19 8 26 7 28 -3 2 -8 8 -14
13 -14z m-291 -12 c0 -10 2 -10 8 -1 4 6 18 9 32 6 20 -3 26 -10 25 -31 0 -29
-23 -40 -53 -26 -9 4 -25 6 -34 5 -18 -2 -23 15 -12 43 7 19 34 22 34 4z"/>
<path d="M1151 3444 c0 -11 3 -14 6 -6 3 7 2 16 -1 19 -3 4 -6 -2 -5 -13z"/>
<path d="M961 3103 c-6 -21 -11 -49 -11 -63 0 -110 99 -209 207 -210 l43 0
-32 30 c-21 21 -41 30 -63 30 -18 0 -39 8 -48 18 -21 23 -22 75 -3 91 12 10 8
18 -25 50 -26 26 -39 48 -39 65 0 38 -17 32 -29 -11z"/>
<path d="M905 3090 c11 -65 37 -160 46 -166 5 -3 9 -13 9 -22 -1 -11 -7 -6
-17 13 -13 23 -18 26 -21 13 -4 -19 41 -113 90 -190 29 -46 29 -48 12 -76 -12
-22 -15 -40 -10 -74 l7 -45 124 -7 c69 -4 129 -5 135 -1 18 11 11 74 -10 95
-11 11 -22 20 -24 20 -2 0 -2 -9 1 -20 5 -19 0 -20 -96 -20 -82 0 -103 3 -108
15 -3 9 -4 18 -1 20 2 2 47 7 98 11 l95 7 29 66 c16 36 41 81 55 100 57 74 71
96 71 114 0 13 -14 3 -50 -36 -61 -67 -101 -87 -174 -87 -129 0 -204 72 -236
225 -14 65 -34 102 -25 45z m355 -500 c0 -5 -4 -10 -10 -10 -5 0 -10 5 -10 10
0 6 5 10 10 10 6 0 10 -4 10 -10z m0 -40 c0 -5 -4 -10 -10 -10 -5 0 -10 5 -10
10 0 6 5 10 10 10 6 0 10 -4 10 -10z"/>
<path d="M1186 3024 c-3 -7 -3 -14 -1 -16 7 -7 75 4 75 12 0 13 -69 17 -74 4z"/>
<path d="M1336 3025 c-18 -13 -18 -15 -3 -15 17 0 17 -2 0 -32 -9 -18 -16 -37
-15 -42 2 -5 -12 -24 -29 -43 -37 -37 -31 -43 11 -13 33 23 70 94 70 133 0 31
-7 33 -34 12z"/>
<path d="M1565 3260 c-3 -5 -1 -10 4 -10 6 0 11 5 11 10 0 6 -2 10 -4 10 -3 0
-8 -4 -11 -10z"/>
<path d="M1530 3230 c0 -5 5 -10 10 -10 6 0 10 5 10 10 0 6 -4 10 -10 10 -5 0
-10 -4 -10 -10z"/>
<path d="M610 2680 c-8 -5 -10 -10 -5 -10 6 0 17 5 25 10 8 5 11 10 5 10 -5 0
-17 -5 -25 -10z"/>
<path d="M640 2624 c0 -14 3 -14 15 -4 8 7 15 14 15 16 0 2 -7 4 -15 4 -8 0
-15 -7 -15 -16z"/>
<path d="M655 2600 c-3 -5 -2 -10 4 -10 5 0 13 5 16 10 3 6 2 10 -4 10 -5 0
-13 -4 -16 -10z"/>
<path d="M1658 2683 c7 -3 16 -2 19 1 4 3 -2 6 -13 5 -11 0 -14 -3 -6 -6z"/>
<path d="M1592 2569 c2 -7 10 -15 17 -17 8 -3 12 1 9 9 -2 7 -10 15 -17 17 -8
3 -12 -1 -9 -9z"/>
<path d="M1500 2455 c0 -8 7 -15 16 -15 14 0 14 3 4 15 -7 8 -14 15 -16 15 -2
0 -4 -7 -4 -15z"/>
<path d="M1386 2391 c-4 -6 -2 -11 4 -11 6 0 8 -4 5 -10 -3 -5 -1 -10 4 -10
13 0 14 10 2 29 -6 9 -11 10 -15 2z"/>
<path d="M896 2385 c-9 -26 -7 -32 5 -12 6 10 9 21 6 23 -2 3 -7 -2 -11 -11z"/>
<path d="M1317 2345 c3 -8 9 -12 14 -9 12 7 11 11 -5 17 -10 4 -13 1 -9 -8z"/>
<path d="M1090 2309 c0 -5 5 -7 10 -4 6 3 10 8 10 11 0 2 -4 4 -10 4 -5 0 -10
-5 -10 -11z"/>
<path d="M760 2062 c-63 -31 -77 -96 -30 -140 11 -10 47 -26 80 -35 51 -15 60
-21 60 -40 0 -29 -18 -47 -47 -47 -30 0 -83 27 -83 42 0 6 -9 3 -20 -7 -28
-26 -25 -42 13 -65 22 -14 50 -20 90 -20 51 0 62 4 88 29 20 21 29 39 29 63 0
59 -27 82 -128 108 -39 10 -43 14 -40 38 3 23 8 27 40 30 20 2 47 -2 59 -8 17
-10 24 -9 37 3 22 22 8 44 -35 56 -53 15 -73 14 -113 -7z"/>
<path d="M1089 2071 c-50 -16 -71 -33 -90 -74 -24 -54 -24 -120 1 -172 26 -54
64 -75 135 -75 51 0 60 3 91 34 39 39 42 51 14 66 -18 9 -25 6 -49 -19 -37
-39 -81 -42 -116 -6 -21 20 -25 34 -25 85 0 51 4 65 25 85 31 32 80 33 112 3
19 -18 28 -20 41 -12 62 40 -55 112 -139 85z"/>
<path d="M3455 2067 c-45 -21 -57 -40 -53 -88 2 -36 9 -47 36 -65 18 -12 50
-25 72 -29 24 -4 44 -14 50 -25 13 -24 13 -26 -6 -44 -23 -23 -68 -19 -102 9
-28 24 -30 24 -46 6 -23 -26 -20 -39 17 -61 22 -14 50 -20 90 -20 51 0 62 4
88 29 61 62 28 139 -70 164 -57 13 -79 33 -68 61 8 21 74 22 104 1 19 -13 22
-13 37 10 15 23 15 25 -7 40 -34 22 -106 28 -142 12z"/>
<path d="M440 1910 l0 -160 110 0 110 0 0 25 c0 24 -2 25 -75 25 l-75 0 0 45
0 45 65 0 c63 0 65 1 65 25 0 24 -2 25 -65 25 l-65 0 0 40 0 40 75 0 c73 0 75
1 75 25 l0 25 -110 0 -110 0 0 -160z"/>
<path d="M1280 2045 c0 -23 4 -25 45 -25 l45 0 0 -135 0 -135 35 0 35 0 0 135
0 135 45 0 c41 0 45 2 45 25 l0 25 -125 0 -125 0 0 -25z"/>
<path d="M1680 1978 c1 -188 25 -228 134 -228 111 0 136 39 136 218 l0 102
-35 0 -35 0 0 -119 c0 -113 -1 -121 -22 -135 -12 -9 -32 -16 -43 -16 -11 0
-31 7 -43 16 -21 14 -22 22 -22 135 l0 119 -35 0 -35 0 0 -92z"/>
<path d="M2030 1910 l0 -160 30 0 29 0 3 113 3 112 69 -112 c66 -108 71 -113
103 -113 l33 0 0 160 0 160 -30 0 -30 0 0 -101 c0 -59 -4 -98 -9 -94 -5 3 -36
48 -68 100 -57 93 -59 95 -95 95 l-38 0 0 -160z"/>
<path d="M2380 1910 l0 -160 35 0 35 0 0 160 0 160 -35 0 -35 0 0 -160z"/>
<path d="M2503 2058 c2 -7 26 -80 53 -161 l49 -148 39 3 39 3 53 158 52 157
-32 0 -32 0 -40 -122 -41 -123 -38 123 -39 122 -34 0 c-23 0 -33 -4 -29 -12z"/>
<path d="M2840 1910 l0 -160 105 0 105 0 0 25 c0 24 -2 25 -75 25 l-75 0 0 45
0 45 65 0 c63 0 65 1 65 25 0 24 -2 25 -65 25 l-65 0 0 40 0 40 75 0 c73 0 75
1 75 25 l0 25 -105 0 -105 0 0 -160z"/>
<path d="M3110 1910 l0 -160 35 0 35 0 0 65 0 65 34 0 c33 0 36 -3 55 -55 12
-31 21 -60 21 -65 0 -6 15 -10 34 -10 l35 0 -21 63 c-11 34 -27 68 -34 76 -11
12 -9 18 11 37 36 33 35 95 -1 123 -23 18 -41 21 -115 21 l-89 0 0 -160z m154
104 c10 -4 16 -18 16 -35 0 -32 -27 -49 -76 -49 -22 0 -24 4 -24 45 0 45 0 45
34 45 19 0 41 -3 50 -6z"/>
<path d="M3690 1910 l0 -160 35 0 35 0 0 160 0 160 -35 0 -35 0 0 -160z"/>
<path d="M3810 2045 c0 -23 4 -25 45 -25 l45 0 0 -135 0 -135 30 0 30 0 0 135
0 135 50 0 c47 0 50 2 50 25 l0 25 -125 0 -125 0 0 -25z"/>
<path d="M4081 2048 c7 -13 31 -57 55 -99 39 -67 44 -83 44 -137 l0 -62 30 0
30 0 0 63 c0 48 6 72 26 107 14 25 39 69 56 98 l29 52 -34 0 c-32 0 -37 -5
-66 -60 -18 -33 -35 -60 -39 -60 -4 0 -23 27 -41 60 -32 54 -38 60 -68 60 -32
0 -33 -1 -22 -22z"/>
<path d="M4175 1540 c-8 -13 4 -32 16 -25 12 8 12 35 0 35 -6 0 -13 -4 -16
-10z"/>
<path d="M3610 1430 l0 -110 60 0 c47 0 64 4 80 20 26 26 25 55 -1 81 -16 16
-18 23 -9 34 18 22 8 58 -20 72 -14 7 -44 13 -67 13 l-43 0 0 -110z m117 60
c5 -25 -12 -40 -50 -47 l-37 -6 0 37 0 37 42 -3 c29 -2 44 -8 45 -18z m11 -98
c5 -34 -15 -52 -59 -52 -39 0 -39 0 -39 41 l0 40 48 -3 c40 -3 47 -6 50 -26z"/>
<path d="M3849 1476 c-73 -36 -53 -156 26 -156 34 0 75 24 62 36 -4 4 -13 2
-19 -4 -15 -15 -61 -15 -76 0 -7 7 -12 20 -12 30 0 15 9 18 55 18 51 0 55 2
55 23 0 47 -48 75 -91 53z m63 -30 c15 -21 8 -26 -37 -26 -49 0 -57 11 -24 34
22 15 48 11 61 -8z"/>
<path d="M4036 1475 c-14 -8 -26 -10 -26 -4 0 5 -4 9 -10 9 -6 0 -10 -33 -10
-80 0 -47 4 -80 10 -80 6 0 10 23 10 51 0 65 13 89 49 89 35 0 41 -14 41 -86
0 -30 5 -54 10 -54 15 0 13 135 -2 147 -25 19 -46 21 -72 8z"/>
<path d="M4306 1475 c-14 -8 -26 -10 -26 -4 0 5 -4 9 -10 9 -6 0 -10 -33 -10
-80 0 -47 4 -80 10 -80 6 0 10 26 10 58 0 65 11 82 52 82 l28 0 0 -70 c0 -56
3 -70 15 -70 12 0 15 14 15 63 0 87 -30 120 -84 92z"/>
<path d="M4180 1400 c0 -47 4 -80 10 -80 6 0 10 33 10 80 0 47 -4 80 -10 80
-6 0 -10 -33 -10 -80z"/>
</g>
</svg>
